#N canvas 661 120 1065 775 10;
#N canvas 0 50 450 300 (subpatch) 0;
#X array loopl 503936 float 2;
#X coords 0 1 503936 -1 200 70 1 0 0;
#X restore 66 34 graph;
#X obj 69 174 hsl 195 15 0 0 0 0 empty vispos empty -2 -8 0 10 -257985
-1 -1 -2.14748e+009 1;
#X obj 67 351 hsl 195 15 100 0 0 0 empty empty fade_out 200 6 1 10
-262144 -1 -1 0 1;
#N canvas 0 50 450 300 (subpatch) 0;
#X array visuall 1 float 5;
#A 0 0;
#X coords 0 1 1 -1 200 70 1 0 0;
#X restore 64 211 graph;
#X obj 67 367 hsl 195 15 0 100 0 0 empty empty fade_in 200 6 1 10 -262144
-1 -1 0 1;
#N canvas 117 117 450 250 (subpatch) 0;
#X array beats 16 float 3;
#A 0 0 1 2 3 4 5 6 7 7 8 10 10 12 13 13 14;
#X coords 0 16 16 0 200 140 1 0 0;
#X restore 282 37 graph;
#X obj 785 198 vsl 15 128 0 1 0 0 hpb empty hpb 0 -9 0 10 -262144 -1
-1 3810 1;
#X obj 820 199 vsl 15 128 0 1 0 0 offset empty off 0 -9 0 10 -262144
-1 -1 6350 1;
#N canvas 117 117 450 250 (subpatch) 0;
#X array euclid_rest 16 float 3;
#A 0 0 0 0 1 0 0 0 1 0 0 0 1 0 0 0 1;
#X coords 0 1.1 16 -0.1 200 70 1 0 0;
#X restore 494 37 graph;
#X msg 823 162 0.5;
#X obj 947 197 vsl 15 128 0 15.99 0 0 fx empty fx 0 -9 0 10 -262144
-1 -1 794 1;
#X msg 937 162 1;
#X obj 742 197 vsl 15 128 2 8 0 0 bpow empty bpow 0 -9 0 10 -262144
-1 -1 4233 1;
#X msg 733 161 4;
#X obj 32 381 s fout;
#X obj 29 399 s fin;
#X obj 305 471 r filename;
#N canvas 161 150 1181 679 fileloader 0;
#X obj 175 484 textfile;
#X obj 235 215 +;
#X msg 235 185 1;
#X msg 266 185 -1;
#X floatatom 269 270 5 0 0 0 - - -, f 5;
#X text 305 57 file number in list;
#X obj 175 511 list trim;
#X obj 175 547 s filename;
#N canvas 198 246 984 488 gangbang 0;
#X obj 224 25 inlet;
#X obj 129 258 outlet;
#X obj 265 336 outlet;
#X text 328 338 done;
#X text 13 156 bang n times;
#X obj 158 219 bng 15 250 50 0 empty empty empty 17 7 0 10 -262144
-1 -1;
#X obj 231 80 abs;
#X obj 166 112 until;
#X obj 166 140 f;
#X obj 197 142 + 1;
#X obj 241 142 sel 0;
#X obj 197 163 mod 10;
#X floatatom 154 167 5 0 0 0 - - -, f 5;
#X obj 206 89 bng 15 250 50 0 empty empty empty 17 7 0 10 -262144 -1
-1;
#X obj 297 127 - 1;
#X obj 297 149 abs;
#X obj 245 216 == 2;
#X floatatom 297 171 5 0 0 0 - - -, f 5;
#X obj 244 262 spigot 1;
#X msg 262 295 bang;
#X connect 0 0 6 0;
#X connect 0 0 13 0;
#X connect 5 0 1 0;
#X connect 6 0 11 1;
#X connect 6 0 14 0;
#X connect 7 0 8 0;
#X connect 8 0 9 0;
#X connect 8 0 12 0;
#X connect 8 0 16 0;
#X connect 9 0 11 0;
#X connect 10 0 7 1;
#X connect 11 0 8 1;
#X connect 11 0 10 0;
#X connect 12 0 5 0;
#X connect 13 0 7 0;
#X connect 14 0 15 0;
#X connect 15 0 17 0;
#X connect 16 0 18 1;
#X connect 16 0 18 0;
#X connect 17 0 16 1;
#X connect 18 0 19 0;
#X connect 19 0 2 0;
#X restore 269 321 pd gangbang;
#X msg 300 352 rewind;
#X obj 269 291 t f b;
#X obj 497 389 pack s s;
#X obj 497 464 soundfiler;
#X obj 535 523 / 44.1;
#X floatatom 595 518 15 0 0 0 - - -, f 15;
#X obj 605 459 print;
#X obj 484 273 t b b;
#X obj 602 270 r filename;
#X obj 563 321 symbol;
#X symbolatom 563 347 35 0 0 0 - - -, f 35;
#X msg 718 498 \; vispos range 0 \$1;
#X obj 497 493 t b f f;
#X obj 70 59 bng 15 250 50 0 empty empty + 4 7 0 14 -33289 -1 -4034
;
#X obj 84 59 bng 15 250 50 0 empty empty - 4 7 0 14 -33289 -1 -4034
;
#X obj 437 579 s totallength;
#X obj 539 556 s totalduration;
#X obj 546 228 r path;
#X obj 497 342 symbol;
#X symbolatom 497 367 55 0 0 0 - - -, f 55;
#X obj 176 434 pack s s;
#X obj 176 388 r path;
#X obj 176 410 symbol;
#X obj 230 410 symbol;
#X obj 230 388 r textlist;
#X msg 176 457 read \$1\$2 cr;
#X obj 117 60 nbx 5 14 -1e+037 1e+037 0 0 empty empty empty 0 -8 0
10 -262144 -1 -1 1 256;
#X obj 51 17 inlet;
#X obj 96 17 inlet;
#X obj 438 246 bng 15 250 50 0 empty empty empty 17 7 0 10 -262144
-1 -1;
#X obj 602 292 symbol;
#X obj 546 250 symbol;
#X obj 118 401 bng 15 250 50 0 empty empty empty 17 7 0 10 -262144
-1 -1;
#X obj 306 214 i 0;
#X obj 402 524 s barsupdate;
#X obj 789 424 print;
#X obj 206 26 inlet;
#X msg 285 111 1;
#X msg 497 435 read -resize -maxsize 1e+007 \$1\$2 loopl loopr;
#X msg 728 398 1 \$1;
#X connect 0 0 6 0;
#X connect 1 0 42 0;
#X connect 2 0 1 0;
#X connect 3 0 1 0;
#X connect 4 0 10 0;
#X connect 4 0 35 0;
#X connect 6 0 7 0;
#X connect 8 0 0 0;
#X connect 8 1 38 0;
#X connect 9 0 0 0;
#X connect 10 0 8 0;
#X connect 10 1 9 0;
#X connect 11 0 47 0;
#X connect 12 0 14 0;
#X connect 12 0 20 0;
#X connect 12 0 21 0;
#X connect 13 0 25 0;
#X connect 16 0 27 0;
#X connect 16 1 18 0;
#X connect 17 0 39 0;
#X connect 18 0 19 0;
#X connect 18 0 48 0;
#X connect 19 0 11 1;
#X connect 21 0 43 0;
#X connect 21 1 24 0;
#X connect 21 2 13 0;
#X connect 22 0 2 0;
#X connect 23 0 3 0;
#X connect 26 0 40 0;
#X connect 27 0 28 0;
#X connect 28 0 11 0;
#X connect 29 0 34 0;
#X connect 30 0 31 0;
#X connect 31 0 29 0;
#X connect 32 0 29 1;
#X connect 33 0 32 0;
#X connect 34 0 0 0;
#X connect 36 0 22 0;
#X connect 37 0 23 0;
#X connect 38 0 16 0;
#X connect 39 0 18 1;
#X connect 40 0 27 1;
#X connect 41 0 0 0;
#X connect 42 0 4 0;
#X connect 42 0 1 1;
#X connect 45 0 46 0;
#X connect 46 0 42 0;
#X connect 46 0 42 1;
#X connect 47 0 12 0;
#X connect 48 0 44 0;
#X coords 0 -1 1 1 150 120 2 50 50;
#X restore 287 435 pd fileloader;
#X obj 305 493 symbol;
#X symbolatom 305 527 30 0 0 0 - - -, f 30;
#X obj 853 198 vsl 15 128 0.001 0.999 0 0 rand empty rand 0 -9 0 10
-262144 -1 -1 1260 1;
#N canvas 117 117 450 250 (subpatch) 0;
#X array randbeats 16 float 3;
#A 0 8 12 7 8 11 3 11 14 0 1 14 6 13 9 7 3;
#X coords 0 16 16 0 200 140 1 0 0;
#X restore 279 209 graph;
#X obj 811 103 r initvals;
#X obj 277 411 r loadfirst;
#X obj 811 125 t b b b b b b;
#N canvas 117 117 450 250 (subpatch) 0;
#X array euclid_reverse 16 float 3;
#A 0 0 0 1 0 0 0 1 0 0 0 1 0 0 0 1 0;
#X coords 0 1.1 16 -0.1 200 70 1 0 0;
#X restore 492 126 graph;
#N canvas 117 117 450 250 (subpatch) 0;
#X array euclid_pitch 16 float 3;
#A 0 0 1 0 0 0 1 0 0 0 1 0 0 0 1 0 0;
#X coords 0 1.1 16 -0.1 200 70 1 0 0;
#X restore 490 217 graph;
#N canvas 117 117 450 250 (subpatch) 0;
#X array euclid_stutter 16 float 3;
#A 0 0 0 0 1 0 0 0 1 0 0 0 1 0 0 0 1;
#X coords 0 1.1 16 -0.1 200 70 1 0 0;
#X restore 488 310 graph;
#N canvas 225 50 958 988 tt-passthru 0;
#X obj 499 32 loadbang;
#X obj 500 63 delay 300;
#X msg 500 101 1;
#X msg 458 128 open;
#X obj 213 209 tedium_input 4;
#X obj 79 218 tedium_input 23;
#X obj 212 260 tedium_input 17;
#X obj 208 315 tedium_input 14;
#X obj 208 369 tedium_input 27;
#X obj 67 281 tedium_input 24;
#X obj 275 678 tedium_output 12;
#X obj 271 613 tedium_output 16;
#X text 192 173 gate inputs 0-3;
#X text 51 184 tact sw 0-2;
#X text 544 149 adc 0-5;
#X text 301 597 top;
#X text 310 658 bottom;
#X text 349 522 switchLED;
#X obj 272 550 tedium_output 26;
#X obj 213 234 s ttD1;
#X obj 213 289 s ttD2;
#X obj 208 340 s ttD3;
#X obj 209 393 s ttD4;
#X obj 80 247 s ttUP;
#X obj 271 578 r ttTopLED;
#X obj 274 640 r ttBottomLED;
#X obj 402 433 s knob1;
#X obj 529 434 s knob2;
#X obj 539 522 s knob3;
#X obj 581 372 s knob4;
#N canvas 184 58 815 717 removenoise 0;
#X obj 99 26 inlet;
#X obj 288 94 f;
#X obj 99 173 i;
#X obj 95 205 change;
#X text 298 143 smooth and remove noise;
#X obj 95 234 outlet;
#X obj 99 53 t f b;
#X obj 99 123 expr ($f1*(($f2*-1)+1))+($f3*$f2);
#X obj 60 96 sel 0;
#X obj 60 144 0;
#X msg 202 88 0.3;
#X connect 0 0 6 0;
#X connect 1 0 7 2;
#X connect 2 0 3 0;
#X connect 3 0 5 0;
#X connect 6 0 8 0;
#X connect 6 1 10 0;
#X connect 7 0 1 0;
#X connect 7 0 2 0;
#X connect 8 0 9 0;
#X connect 8 1 7 0;
#X connect 9 0 1 0;
#X connect 9 0 10 0;
#X connect 9 0 7 0;
#X connect 10 0 7 1;
#X restore 502 202 pd removenoise;
#N canvas 676 202 641 735 removenoise 0;
#X obj 99 26 inlet;
#X obj 288 94 f;
#X obj 99 173 i;
#X text 298 143 smooth and remove noise;
#X obj 98 241 outlet;
#X obj 99 53 t f b;
#X obj 99 123 expr ($f1*(($f2*-1)+1))+($f3*$f2);
#X obj 60 96 sel 0;
#X obj 60 144 0;
#X msg 202 88 0.3;
#X obj 99 208 change;
#X connect 0 0 5 0;
#X connect 1 0 6 2;
#X connect 2 0 10 0;
#X connect 5 0 7 0;
#X connect 5 1 9 0;
#X connect 6 0 1 0;
#X connect 6 0 2 0;
#X connect 7 0 8 0;
#X connect 7 1 6 0;
#X connect 8 0 1 0;
#X connect 8 0 9 0;
#X connect 8 0 6 0;
#X connect 9 0 6 1;
#X connect 10 0 4 0;
#X restore 528 229 pd removenoise;
#N canvas 0 50 677 712 removenoise 0;
#X obj 99 26 inlet;
#X obj 288 94 f;
#X obj 99 173 i;
#X text 298 143 smooth and remove noise;
#X obj 99 247 outlet;
#X obj 99 53 t f b;
#X obj 99 123 expr ($f1*(($f2*-1)+1))+($f3*$f2);
#X obj 60 96 sel 0;
#X obj 60 144 0;
#X msg 202 88 0.3;
#X obj 99 215 change;
#X connect 0 0 5 0;
#X connect 1 0 6 2;
#X connect 2 0 10 0;
#X connect 5 0 7 0;
#X connect 5 1 9 0;
#X connect 6 0 1 0;
#X connect 6 0 2 0;
#X connect 7 0 8 0;
#X connect 7 1 6 0;
#X connect 8 0 1 0;
#X connect 8 0 9 0;
#X connect 8 0 6 0;
#X connect 9 0 6 1;
#X connect 10 0 4 0;
#X restore 554 251 pd removenoise;
#N canvas 0 50 804 804 removenoise 0;
#X obj 99 26 inlet;
#X obj 288 94 f;
#X obj 99 173 i;
#X text 298 143 smooth and remove noise;
#X obj 99 231 outlet;
#X obj 99 53 t f b;
#X obj 99 123 expr ($f1*(($f2*-1)+1))+($f3*$f2);
#X obj 60 96 sel 0;
#X obj 60 144 0;
#X msg 202 88 0.3;
#X obj 99 203 change;
#X connect 0 0 5 0;
#X connect 1 0 6 2;
#X connect 2 0 10 0;
#X connect 5 0 7 0;
#X connect 5 1 9 0;
#X connect 6 0 1 0;
#X connect 6 0 2 0;
#X connect 7 0 8 0;
#X connect 7 1 6 0;
#X connect 8 0 1 0;
#X connect 8 0 9 0;
#X connect 8 0 6 0;
#X connect 9 0 6 1;
#X connect 10 0 4 0;
#X restore 581 275 pd removenoise;
#N canvas 0 50 736 762 removenoise 0;
#X obj 99 26 inlet;
#X obj 288 94 f;
#X obj 99 173 i;
#X text 298 143 smooth and remove noise;
#X obj 99 232 outlet;
#X obj 99 53 t f b;
#X obj 99 123 expr ($f1*(($f2*-1)+1))+($f3*$f2);
#X obj 60 96 sel 0;
#X obj 60 144 0;
#X msg 202 88 0.3;
#X obj 99 201 change;
#X connect 0 0 5 0;
#X connect 1 0 6 2;
#X connect 2 0 10 0;
#X connect 5 0 7 0;
#X connect 5 1 9 0;
#X connect 6 0 1 0;
#X connect 6 0 2 0;
#X connect 7 0 8 0;
#X connect 7 1 6 0;
#X connect 8 0 1 0;
#X connect 8 0 9 0;
#X connect 8 0 6 0;
#X connect 9 0 6 1;
#X connect 10 0 4 0;
#X restore 604 299 pd removenoise;
#N canvas 0 50 833 743 removenoise 0;
#X obj 99 26 inlet;
#X obj 288 94 f;
#X obj 99 173 i;
#X text 298 143 smooth and remove noise;
#X obj 98 236 outlet;
#X obj 99 53 t f b;
#X obj 99 123 expr ($f1*(($f2*-1)+1))+($f3*$f2);
#X obj 60 96 sel 0;
#X obj 60 144 0;
#X msg 202 88 0.3;
#X obj 98 204 change;
#X connect 0 0 5 0;
#X connect 1 0 6 2;
#X connect 2 0 10 0;
#X connect 5 0 7 0;
#X connect 5 1 9 0;
#X connect 6 0 1 0;
#X connect 6 0 2 0;
#X connect 7 0 8 0;
#X connect 7 1 6 0;
#X connect 8 0 1 0;
#X connect 8 0 9 0;
#X connect 8 0 6 0;
#X connect 9 0 6 1;
#X connect 10 0 4 0;
#X restore 633 324 pd removenoise;
#X text 9 403 ftsw;
#X obj 116 24 r led;
#X obj 116 50 % 8;
#X floatatom 253 139 5 0 0 0 - - -, f 5;
#X floatatom 257 43 5 0 0 0 - - -, f 5;
#X obj 181 40 div 4;
#X obj 190 89 div 2;
#X obj 181 63 expr $f1- 4*$f2;
#X floatatom 254 92 5 0 0 0 - - -, f 5;
#X obj 195 137 div 1;
#X obj 181 111 expr $f1- 2*$f2;
#X obj 309 52 s ttSWLED;
#X obj 307 95 s ttTopLED;
#X obj 305 135 s ttBottomLED;
#X obj 68 313 s ttLEDbutton;
#X obj 486 684 moses 1000;
#X obj 596 625 moses 1;
#X obj 401 720 print short press:;
#X obj 272 521 r ttSWLED;
#X text 23 6 disabled weird 3-bit binary LED display;
#X obj 487 590 tedium_switch 24;
#X obj 46 495 moses 1000;
#X obj 162 459 moses 1;
#X obj 53 425 tedium_switch 25;
#X msg 633 142 smooth 8;
#X obj 501 129 metro 5;
#X obj 502 171 terminal_tedium_adc;
#X msg 594 122 deadband 5;
#X obj 754 456 s knob5;
#X obj 629 500 s knob6;
#X obj 417 397 expr 2 + $f1*6;
#X obj 688 375 expr 0.001 + $f1*0.998;
#X obj 639 475 expr $f1*16;
#X obj 400 800 s arm;
#X obj 65 346 tedium_input 25;
#X obj 66 375 s ttDOWN;
#X msg 412 778 1;
#X obj 740 840 s play;
#X obj 724 752 + 1;
#X obj 633 443 / 4000;
#X obj 504 349 / 4000;
#X obj 529 408 / 4000;
#X obj 555 460 / 4000;
#X obj 581 336 / 4000;
#X obj 606 396 / 4000;
#X obj 735 800 % 2;
#X obj 677 730 bng 15 250 50 0 empty empty empty 17 7 0 10 -262144
-1 -1;
#X obj 717 429 expr 2 + $f1*14;
#X obj 596 649 print release;
#X obj 693 750 f 0;
#X obj 716 636 loadbang;
#X floatatom 663 849 5 0 0 0 - - -, f 5;
#X msg 712 691 1;
#X connect 0 0 1 0;
#X connect 1 0 3 0;
#X connect 1 0 2 0;
#X connect 2 0 61 0;
#X connect 3 0 62 0;
#X connect 4 0 19 0;
#X connect 5 0 23 0;
#X connect 6 0 20 0;
#X connect 7 0 21 0;
#X connect 8 0 22 0;
#X connect 9 0 50 0;
#X connect 24 0 11 0;
#X connect 25 0 10 0;
#X connect 30 0 76 0;
#X connect 31 0 77 0;
#X connect 32 0 78 0;
#X connect 33 0 79 0;
#X connect 34 0 80 0;
#X connect 35 0 75 0;
#X connect 37 0 38 0;
#X connect 38 0 41 0;
#X connect 38 0 43 0;
#X connect 40 0 43 1;
#X connect 40 0 47 0;
#X connect 41 0 40 0;
#X connect 42 0 44 0;
#X connect 43 0 42 0;
#X connect 43 0 46 0;
#X connect 44 0 46 1;
#X connect 45 0 39 0;
#X connect 46 0 45 0;
#X connect 51 0 82 0;
#X connect 51 1 72 0;
#X connect 54 0 18 0;
#X connect 56 0 51 0;
#X connect 56 1 52 0;
#X connect 59 0 57 0;
#X connect 59 1 58 0;
#X connect 60 0 62 0;
#X connect 61 0 62 0;
#X connect 62 0 30 0;
#X connect 62 1 31 0;
#X connect 62 2 32 0;
#X connect 62 3 33 0;
#X connect 62 4 34 0;
#X connect 62 5 35 0;
#X connect 63 0 62 0;
#X connect 66 0 26 0;
#X connect 67 0 29 0;
#X connect 68 0 65 0;
#X connect 70 0 71 0;
#X connect 72 0 69 0;
#X connect 74 0 85 1;
#X connect 75 0 68 0;
#X connect 76 0 66 0;
#X connect 77 0 27 0;
#X connect 78 0 28 0;
#X connect 79 0 67 0;
#X connect 80 0 83 0;
#X connect 81 0 73 0;
#X connect 81 0 87 0;
#X connect 82 0 85 0;
#X connect 83 0 64 0;
#X connect 85 0 74 0;
#X connect 85 0 81 0;
#X connect 86 0 88 0;
#X connect 88 0 85 1;
#X restore 103 462 pd tt-passthru;
#X msg 785 162 0.3;
#X obj 248 394 r ttUP;
#X obj 364 402 r ttDOWN;
#X obj 704 79 r knob1;
#X obj 769 78 r knob2;
#X obj 832 78 r knob3;
#X obj 898 79 r knob4;
#X obj 985 117 r knob6;
#X obj 447 412 bng 15 250 50 0 empty empty empty 17 7 0 10 -262144
-1 -1;
#X obj 442 397 r loadrec;
#X obj 902 198 vsl 15 128 2 16 0 0 stut empty stut 0 -9 0 10 -262144
-1 -1 2721 1;
#X msg 899 162 5;
#X obj 959 78 r knob5;
#N canvas 0 50 534 760 Euclidian 0;
#N canvas 23 302 541 432 euclid 0;
#X obj 15 12 inlet;
#X obj 72 75 inlet;
#X obj 110 218 select 1;
#X obj 15 243 outlet;
#X obj 128 129 inlet;
#X text 111 74 specify desired number of hits per bar;
#X text 174 126 specify length of bar;
#X text 54 10 <-- send an integer to find out if there should be a
hit on that beat;
#X obj 15 146 % \$3;
#X text 14 323 Generates 'euclidean rhythms' (see cgm.cs.mcgill.ca/~godfried/publications/banff.pdf).
Ideally to be used with a [metro]-powered [f ]x[+ 1] counter attached
to the first inlet. Hits per bar \, offset and bar length can be set
by the first three arguments respectively.;
#X text 172 217 <-- bang out on each hit. (Silent on rest.);
#X obj 15 81 + \$2;
#X obj 15 113 * \$1;
#X obj 15 179 < \$1;
#X obj 99 100 inlet;
#X text 133 99 rhythm offset/rotation;
#X connect 0 0 11 0;
#X connect 1 0 12 1;
#X connect 1 0 13 1;
#X connect 4 0 8 1;
#X connect 8 0 13 0;
#X connect 11 0 12 0;
#X connect 12 0 8 0;
#X connect 13 0 3 0;
#X connect 14 0 11 1;
#X restore 125 245 pd euclid;
#X floatatom 72 210 5 0 0 0 - - -, f 5;
#X floatatom 125 211 5 0 0 0 - - -, f 5;
#X floatatom 176 213 5 0 0 0 - - -, f 5;
#X floatatom 228 212 5 0 0 0 - - -, f 5;
#X obj 125 155 *;
#X obj 161 155 *;
#X obj 125 177 i;
#X obj 161 177 i;
#X obj 72 157 i;
#X obj 224 73 r bpbar;
#X obj 296 91 bng 15 250 50 0 empty empty empty 17 7 0 10 -262144 -1
-1;
#X obj 107 75 r hpb;
#X obj 155 74 r offset;
#X text 54 95 hits-per-bar offset length;
#X obj 272 116 until;
#X obj 272 144 f;
#X obj 303 146 + 1;
#X obj 347 146 sel 0;
#X obj 303 167 mod 10;
#X floatatom 260 171 5 0 0 0 - - -, f 5;
#X obj 336 90 r bpbar;
#X obj 298 51 r euclidupdate;
#N canvas 23 302 541 432 euclid 0;
#X obj 15 12 inlet;
#X obj 72 75 inlet;
#X obj 110 218 select 1;
#X obj 15 243 outlet;
#X obj 128 129 inlet;
#X text 111 74 specify desired number of hits per bar;
#X text 174 126 specify length of bar;
#X text 54 10 <-- send an integer to find out if there should be a
hit on that beat;
#X obj 15 146 % \$3;
#X text 14 323 Generates 'euclidean rhythms' (see cgm.cs.mcgill.ca/~godfried/publications/banff.pdf).
Ideally to be used with a [metro]-powered [f ]x[+ 1] counter attached
to the first inlet. Hits per bar \, offset and bar length can be set
by the first three arguments respectively.;
#X text 172 217 <-- bang out on each hit. (Silent on rest.);
#X obj 15 81 + \$2;
#X obj 15 113 * \$1;
#X obj 15 179 < \$1;
#X obj 99 100 inlet;
#X text 133 99 rhythm offset/rotation;
#X connect 0 0 11 0;
#X connect 1 0 12 1;
#X connect 1 0 13 1;
#X connect 4 0 8 1;
#X connect 8 0 13 0;
#X connect 11 0 12 0;
#X connect 12 0 8 0;
#X connect 13 0 3 0;
#X connect 14 0 11 1;
#X restore 128 365 pd euclid;
#N canvas 23 302 541 432 euclid 0;
#X obj 15 12 inlet;
#X obj 72 75 inlet;
#X obj 110 218 select 1;
#X obj 15 243 outlet;
#X obj 128 129 inlet;
#X text 111 74 specify desired number of hits per bar;
#X text 174 126 specify length of bar;
#X text 54 10 <-- send an integer to find out if there should be a
hit on that beat;
#X obj 15 146 % \$3;
#X text 14 323 Generates 'euclidean rhythms' (see cgm.cs.mcgill.ca/~godfried/publications/banff.pdf).
Ideally to be used with a [metro]-powered [f ]x[+ 1] counter attached
to the first inlet. Hits per bar \, offset and bar length can be set
by the first three arguments respectively.;
#X text 172 217 <-- bang out on each hit. (Silent on rest.);
#X obj 15 81 + \$2;
#X obj 15 113 * \$1;
#X obj 15 179 < \$1;
#X obj 99 100 inlet;
#X text 133 99 rhythm offset/rotation;
#X connect 0 0 11 0;
#X connect 1 0 12 1;
#X connect 1 0 13 1;
#X connect 4 0 8 1;
#X connect 8 0 13 0;
#X connect 11 0 12 0;
#X connect 12 0 8 0;
#X connect 13 0 3 0;
#X connect 14 0 11 1;
#X restore 140 456 pd euclid;
#N canvas 23 302 541 432 euclid 0;
#X obj 15 12 inlet;
#X obj 72 75 inlet;
#X obj 110 218 select 1;
#X obj 15 243 outlet;
#X obj 128 129 inlet;
#X text 111 74 specify desired number of hits per bar;
#X text 174 126 specify length of bar;
#X text 54 10 <-- send an integer to find out if there should be a
hit on that beat;
#X obj 15 146 % \$3;
#X text 14 323 Generates 'euclidean rhythms' (see cgm.cs.mcgill.ca/~godfried/publications/banff.pdf).
Ideally to be used with a [metro]-powered [f ]x[+ 1] counter attached
to the first inlet. Hits per bar \, offset and bar length can be set
by the first three arguments respectively.;
#X text 172 217 <-- bang out on each hit. (Silent on rest.);
#X obj 15 81 + \$2;
#X obj 15 113 * \$1;
#X obj 15 179 < \$1;
#X obj 99 100 inlet;
#X text 133 99 rhythm offset/rotation;
#X connect 0 0 11 0;
#X connect 1 0 12 1;
#X connect 1 0 13 1;
#X connect 4 0 8 1;
#X connect 8 0 13 0;
#X connect 11 0 12 0;
#X connect 12 0 8 0;
#X connect 13 0 3 0;
#X connect 14 0 11 1;
#X restore 150 554 pd euclid;
#X obj 175 313 * 1.125;
#X obj 188 413 * 1.25;
#X obj 203 507 * 1.5;
#X obj 176 345 i;
#X obj 188 435 i;
#X obj 203 529 i;
#X text 339 578 stutter;
#X text 309 284 rest;
#X text 322 392 reverse;
#X text 332 490 half-pitch;
#X obj 157 579 tabwrite euclid_stutter;
#X obj 151 282 tabwrite euclid_rest;
#X obj 141 392 tabwrite euclid_reverse;
#X obj 162 487 tabwrite euclid_pitch;
#X connect 0 0 37 0;
#X connect 1 0 0 0;
#X connect 1 0 23 0;
#X connect 1 0 24 0;
#X connect 1 0 25 0;
#X connect 1 0 36 1;
#X connect 1 0 37 1;
#X connect 1 0 38 1;
#X connect 1 0 39 1;
#X connect 2 0 0 1;
#X connect 2 0 23 1;
#X connect 2 0 24 1;
#X connect 2 0 25 1;
#X connect 3 0 0 2;
#X connect 4 0 0 3;
#X connect 4 0 23 3;
#X connect 4 0 24 3;
#X connect 4 0 25 3;
#X connect 5 0 7 0;
#X connect 6 0 8 0;
#X connect 7 0 2 0;
#X connect 8 0 3 0;
#X connect 8 0 26 0;
#X connect 8 0 27 0;
#X connect 8 0 28 0;
#X connect 9 0 1 0;
#X connect 10 0 5 1;
#X connect 10 0 6 1;
#X connect 10 0 4 0;
#X connect 11 0 15 0;
#X connect 12 0 11 0;
#X connect 12 0 5 0;
#X connect 13 0 11 0;
#X connect 13 0 6 0;
#X connect 15 0 16 0;
#X connect 16 0 17 0;
#X connect 16 0 20 0;
#X connect 17 0 19 0;
#X connect 18 0 15 1;
#X connect 19 0 16 1;
#X connect 19 0 18 0;
#X connect 20 0 9 0;
#X connect 21 0 19 1;
#X connect 22 0 11 0;
#X connect 23 0 38 0;
#X connect 24 0 39 0;
#X connect 25 0 36 0;
#X connect 26 0 29 0;
#X connect 27 0 30 0;
#X connect 28 0 31 0;
#X connect 29 0 23 2;
#X connect 30 0 24 2;
#X connect 31 0 25 2;
#X restore 103 484 pd Euclidian;
#N canvas 0 50 603 783 UpdateBars 0;
#X obj 64 166 pow;
#X obj 52 130 f;
#X msg 57 96 2;
#X obj 102 138 t b f;
#X obj 107 112 i;
#X obj 65 255 s bpbar;
#X obj 215 66 r totallength;
#X obj 197 105 f;
#X obj 197 133 / 1;
#X obj 328 105 f;
#X obj 328 133 / 1;
#X obj 346 66 r totalduration;
#X obj 198 172 s slen;
#X obj 329 177 s sdur;
#X floatatom 197 155 10 0 0 0 - - -, f 10;
#X floatatom 328 155 5 0 0 0 - - -, f 5;
#X floatatom 62 231 5 0 0 0 - - -, f 5;
#N canvas 1042 182 826 675 randombeats 0;
#X obj 145 130 random 16;
#X obj 178 69 r bpbar;
#X obj 272 20 inlet;
#X obj 259 72 until;
#X obj 259 100 f;
#X obj 290 102 + 1;
#X obj 334 102 sel 0;
#X obj 290 123 mod 16;
#X obj 109 245 tabwrite beats;
#X obj 40 202 tabwrite randbeats;
#X connect 0 0 8 0;
#X connect 0 0 9 0;
#X connect 1 0 0 1;
#X connect 1 0 7 1;
#X connect 2 0 3 0;
#X connect 3 0 4 0;
#X connect 3 0 0 0;
#X connect 4 0 5 0;
#X connect 4 0 8 1;
#X connect 4 0 9 1;
#X connect 5 0 7 0;
#X connect 6 0 3 1;
#X connect 7 0 4 1;
#X connect 7 0 6 0;
#X restore 82 641 pd randombeats;
#X obj 138 50 r bpow;
#X obj 79 668 r rand;
#N canvas 226 301 904 591 randknob 0;
#X obj 211 117 r bpbar;
#X obj 15 6 inlet;
#N canvas 409 70 450 300 cos_pan 0;
#X obj 116 78 inlet;
#X obj 115 200 outlet;
#X obj 204 201 outlet;
#X obj 203 150 sin;
#X obj 203 172 *;
#X obj 113 169 *;
#X obj 116 100 * 1.5708;
#X obj 113 147 cos;
#X connect 0 0 6 0;
#X connect 3 0 4 0;
#X connect 3 0 4 1;
#X connect 4 0 2 0;
#X connect 5 0 1 0;
#X connect 6 0 3 0;
#X connect 6 0 7 0;
#X connect 7 0 5 0;
#X connect 7 0 5 1;
#X restore 12 377 pd cos_pan;
#X obj 78 424 *;
#X obj 44 507 +;
#X floatatom 13 487 5 0 0 0 - - -, f 5;
#X floatatom 77 484 5 0 0 0 - - -, f 5;
#X obj 11 429 *;
#X obj 44 529 i;
#X obj 96 400 f;
#X obj 21 281 r rand;
#X floatatom 133 339 5 0 0 0 - - -, f 5;
#X obj 178 157 f;
#X obj 11 459 + 0.1;
#X obj 95 556 tabwrite beats;
#X obj 155 301 tabread randbeats;
#X obj 109 190 until;
#X obj 109 218 f;
#X obj 140 220 + 1;
#X obj 193 220 sel 0;
#X obj 140 241 mod 16;
#X obj 105 82 t b b;
#X connect 0 0 12 1;
#X connect 1 0 21 0;
#X connect 2 0 7 0;
#X connect 2 1 3 0;
#X connect 3 0 6 0;
#X connect 4 0 8 0;
#X connect 5 0 4 0;
#X connect 6 0 4 1;
#X connect 7 0 13 0;
#X connect 8 0 14 0;
#X connect 9 0 3 1;
#X connect 10 0 2 0;
#X connect 11 0 9 0;
#X connect 11 0 9 1;
#X connect 12 0 20 1;
#X connect 13 0 5 0;
#X connect 15 0 11 0;
#X connect 16 0 17 0;
#X connect 16 0 3 0;
#X connect 16 0 7 0;
#X connect 17 0 18 0;
#X connect 17 0 15 0;
#X connect 17 0 14 1;
#X connect 17 0 7 1;
#X connect 18 0 20 0;
#X connect 19 0 16 1;
#X connect 20 0 17 1;
#X connect 20 0 19 0;
#X connect 21 0 16 0;
#X connect 21 1 12 0;
#X restore 76 732 pd randknob;
#X obj 172 452 array size randbeats;
#X obj 64 210 change;
#X obj 120 341 f;
#X obj 208 412 array size beats;
#X obj 50 592 t b b b;
#X obj 84 408 bng 15 250 50 0 empty empty empty 17 7 0 10 -262144 -1
-1;
#X obj 63 188 i;
#X msg 148 480 \; beats bounds 0 \$1 \$1 0;
#X msg 128 519 \; randbeats bounds 0 \$1 \$1 0;
#X obj 57 24 r barsupdate;
#X obj 114 620 s euclidupdate;
#X obj 120 374 t b f f f f f f f f;
#X obj 98 697 bng 15 250 50 0 empty empty empty 17 7 0 10 -262144 -1
-1;
#X obj 53 370 r ttD3;
#X obj 190 432 array size euclid_rest;
#X obj 299 380 array size euclid_reverse;
#X obj 288 352 array size euclid_pitch;
#X obj 278 330 array size euclid_stutter;
#X connect 0 0 8 1;
#X connect 0 0 10 1;
#X connect 0 0 27 0;
#X connect 1 0 0 0;
#X connect 2 0 1 0;
#X connect 3 0 1 0;
#X connect 3 0 7 0;
#X connect 3 0 9 0;
#X connect 3 1 0 1;
#X connect 4 0 3 0;
#X connect 6 0 7 1;
#X connect 7 0 8 0;
#X connect 8 0 14 0;
#X connect 9 0 10 0;
#X connect 10 0 15 0;
#X connect 11 0 9 1;
#X connect 14 0 12 0;
#X connect 15 0 13 0;
#X connect 16 0 5 0;
#X connect 16 0 23 0;
#X connect 18 0 4 0;
#X connect 18 0 4 1;
#X connect 19 0 33 0;
#X connect 22 0 16 0;
#X connect 23 0 32 0;
#X connect 25 0 20 0;
#X connect 25 1 17 0;
#X connect 25 2 31 0;
#X connect 26 0 25 0;
#X connect 27 0 22 0;
#X connect 30 0 2 0;
#X connect 30 0 4 0;
#X connect 32 0 26 0;
#X connect 32 1 29 0;
#X connect 32 2 28 0;
#X connect 32 3 21 0;
#X connect 32 4 35 0;
#X connect 32 5 24 0;
#X connect 32 6 38 0;
#X connect 32 7 37 0;
#X connect 32 8 36 0;
#X connect 33 0 20 0;
#X connect 34 0 26 0;
#X restore 103 506 pd UpdateBars;
#N canvas 279 50 489 822 recording 0;
#N canvas 802 108 561 420 waverec 0;
#X obj 3 3 cnv 15 100 40 empty empty empty 20 12 0 14 -233017 -66577
0;
#X obj 1 2 cnv 15 85 58 empty empty empty 20 12 0 14 -233211 -66577
0;
#X msg 264 213 stop;
#X obj 217 212 print;
#X msg 273 250 0;
#X msg 219 250 1;
#X obj 32 16 tgl 20 1 empty empty empty 0 -6 0 8 -249631 -355 -355
0 1;
#X obj 8 16 bng 20 250 50 1 empty empty empty 0 -6 0 8 -204465 -1 -1
;
#X obj 56 16 bng 20 250 50 1 empty empty empty 0 -6 0 8 -189457 -1
-1;
#X text 1 2 start;
#X text 53 2 stop;
#X symbolatom 10 42 9 0 0 0 - - -, f 9;
#X obj 42 174 t b b;
#X obj 197 291 writesf~ 2;
#X obj 302 64 r path;
#X obj 379 58 r recording;
#X obj 306 151 pack s s;
#X msg 200 186 open \$1\$2 \, start;
#X obj 143 324 adc~;
#X obj 208 139 bng 15 250 50 0 empty empty empty 17 7 0 10 -262144
-1 -1;
#X obj 302 117 symbol;
#X obj 386 117 symbol;
#X obj 158 14 inlet;
#X obj 220 4 inlet;
#N canvas 91 315 450 392 hmstimer 0;
#X obj 122 85 timer;
#X floatatom 135 135 5 0 0 0 - - -, f 5;
#X msg 122 60 bang;
#X msg 181 36 bang;
#X obj 186 60 metro 1000;
#X msg 229 35 stop, f 5;
#X obj 122 155 t f f f;
#N canvas 66 170 329 264 hours 0;
#X obj 27 22 inlet;
#X obj 18 231 outlet;
#X obj 29 56 / 60;
#X obj 26 85 / 60;
#X obj 23 117 int;
#X obj 192 228 outlet;
#X obj 173 61 moses 10;
#X msg 225 90 set %d;
#X msg 167 89 set 0%d;
#X obj 154 120 makefilename;
#X obj 154 38 t f f;
#X connect 0 0 2 0;
#X connect 2 0 3 0;
#X connect 3 0 4 0;
#X connect 4 0 1 0;
#X connect 4 0 10 0;
#X connect 6 0 8 0;
#X connect 6 1 7 0;
#X connect 7 0 9 0;
#X connect 8 0 9 0;
#X connect 9 0 5 0;
#X connect 10 0 9 0;
#X connect 10 1 6 0;
#X restore 188 192 pd hours;
#X obj 122 110 / 1000;
#N canvas 0 50 450 300 mins 0;
#X obj 19 33 inlet;
#X text 28 16 secs;
#X text 99 18 hrs;
#X obj 93 37 inlet;
#X obj 95 66 * 60;
#X obj 96 93 * 60;
#X obj 79 116 -;
#X obj 78 202 outlet;
#X obj 77 180 int;
#X obj 77 158 / 60;
#X obj 216 124 moses 10;
#X obj 197 183 makefilename;
#X obj 197 101 t f f;
#X msg 294 151 set %d;
#X msg 210 152 set 0%d;
#X obj 196 211 outlet;
#X connect 0 0 6 0;
#X connect 3 0 4 0;
#X connect 4 0 5 0;
#X connect 5 0 6 1;
#X connect 6 0 9 0;
#X connect 8 0 7 0;
#X connect 8 0 12 0;
#X connect 9 0 8 0;
#X connect 10 0 14 0;
#X connect 10 1 13 0;
#X connect 11 0 15 0;
#X connect 12 0 11 0;
#X connect 12 1 10 0;
#X connect 13 0 11 0;
#X connect 14 0 11 0;
#X restore 144 215 pd mins;
#N canvas 0 50 450 300 secs 0;
#X obj 45 25 inlet;
#X obj 149 31 inlet;
#X obj 241 29 inlet;
#X obj 241 54 * 60;
#X obj 242 81 * 60;
#X obj 240 112 -;
#X obj 160 139 -;
#X obj 159 108 * 60;
#X obj 163 193 int;
#X obj 163 241 outlet;
#X obj 311 149 moses 10;
#X obj 292 208 makefilename;
#X obj 292 126 t f f;
#X msg 389 176 set %d;
#X msg 305 177 set 0%d;
#X obj 291 236 outlet;
#X connect 0 0 5 0;
#X connect 1 0 7 0;
#X connect 2 0 3 0;
#X connect 3 0 4 0;
#X connect 4 0 5 1;
#X connect 5 0 6 0;
#X connect 6 0 8 0;
#X connect 7 0 6 1;
#X connect 8 0 9 0;
#X connect 8 0 12 0;
#X connect 10 0 14 0;
#X connect 10 1 13 0;
#X connect 11 0 15 0;
#X connect 12 0 11 0;
#X connect 12 1 10 0;
#X connect 13 0 11 0;
#X connect 14 0 11 0;
#X restore 122 239 pd secs;
#X obj 239 259 makefilename;
#X msg 239 236 set \$1:%s;
#X obj 184 309 makefilename;
#X msg 184 286 set \$1:%s;
#X obj 10 7 cnv 15 70 40 empty empty empty 20 12 0 14 -245490 -66577
0;
#X symbolatom 13 29 9 0 0 0 - - -, f 9;
#X obj 13 11 bng 15 250 50 0 empty empty empty 17 7 0 10 -24198 -1
-1;
#X obj 30 11 bng 15 250 50 0 empty empty empty 17 7 0 10 -262131 -1
-1;
#X obj 47 11 bng 15 250 50 0 empty empty empty 17 7 0 9 -258699 -1
-1;
#X obj 184 340 outlet;
#X msg 198 136 0;
#X obj 198 108 loadbang;
#X obj 89 2 inlet;
#X obj 128 5 inlet;
#X obj 170 3 inlet;
#X connect 0 0 8 0;
#X connect 2 0 0 0;
#X connect 3 0 4 0;
#X connect 4 0 0 1;
#X connect 5 0 4 0;
#X connect 6 0 10 0;
#X connect 6 1 9 0;
#X connect 6 2 7 0;
#X connect 7 0 9 1;
#X connect 7 0 10 2;
#X connect 7 1 12 0;
#X connect 8 0 6 0;
#X connect 8 0 1 0;
#X connect 9 0 10 1;
#X connect 9 1 11 0;
#X connect 10 1 13 0;
#X connect 11 0 14 0;
#X connect 12 0 11 0;
#X connect 13 0 16 0;
#X connect 13 0 20 0;
#X connect 14 0 13 0;
#X connect 17 0 3 0;
#X connect 18 0 5 0;
#X connect 19 0 2 0;
#X connect 21 0 6 0;
#X connect 22 0 21 0;
#X connect 23 0 17 0;
#X connect 24 0 18 0;
#X connect 25 0 19 0;
#X restore 65 221 pd hmstimer;
#X obj 181 74 t b b;
#X obj 303 92 symbol;
#X obj 387 92 symbol;
#X msg 318 247 bang;
#X obj 338 292 s startover;
#X obj 138 371 outlet;
#X connect 2 0 4 0;
#X connect 2 0 13 0;
#X connect 2 0 28 0;
#X connect 4 0 6 0;
#X connect 5 0 6 0;
#X connect 7 0 25 0;
#X connect 8 0 2 0;
#X connect 8 0 24 1;
#X connect 12 0 24 0;
#X connect 12 1 24 2;
#X connect 14 0 26 0;
#X connect 15 0 27 0;
#X connect 16 0 17 0;
#X connect 17 0 3 0;
#X connect 17 0 5 0;
#X connect 17 0 12 0;
#X connect 17 0 13 0;
#X connect 18 0 13 0;
#X connect 18 1 13 1;
#X connect 19 0 17 0;
#X connect 20 0 16 0;
#X connect 21 0 16 1;
#X connect 22 0 7 0;
#X connect 23 0 8 0;
#X connect 24 0 11 0;
#X connect 25 0 20 0;
#X connect 25 1 21 0;
#X connect 26 0 20 1;
#X connect 27 0 21 1;
#X connect 28 0 29 0;
#X connect 28 0 30 0;
#X coords 0 -1 1 1 85 50 1 0 0;
#X restore 127 460 pd waverec;
#X obj 82 212 r arm;
#X obj 90 299 &&;
#X msg 158 367 stop;
#X obj 85 564 bng 15 250 50 0 empty empty empty 17 7 0 10 -262144 -1
-1;
#X obj 69 347 select 1;
#X obj 150 212 r play;
#X msg 69 369 bang;
#X floatatom 90 321 5 0 0 0 - - -, f 5;
#X obj 82 242 f;
#X obj 148 246 t b f;
#X obj 182 270 == 0;
#X msg 163 397 0;
#X obj 163 419 s arm;
#X obj 165 323 select 1;
#X obj 215 373 t b b;
#X obj 172 298 &&;
#X obj 226 269 == 1;
#X obj 198 562 s loadrec;
#X obj 246 605 print;
#N canvas 611 103 450 300 ledpulse 0;
#X obj 83 43 inlet;
#X obj 85 206 outlet;
#X obj 100 71 bng 15 250 50 0 empty empty empty 17 7 0 10 -262144 -1
-1;
#X obj 100 91 t b b;
#X msg 100 135 0;
#X msg 137 137 1;
#X floatatom 103 166 5 0 0 0 - - -, f 5;
#X obj 100 113 delay 100;
#X connect 0 0 2 0;
#X connect 2 0 3 0;
#X connect 3 0 7 0;
#X connect 3 1 5 0;
#X connect 4 0 6 0;
#X connect 4 0 1 0;
#X connect 5 0 6 0;
#X connect 5 0 1 0;
#X connect 7 0 4 0;
#X restore 66 584 pd ledpulse;
#X obj 270 477 print;
#X obj 289 428 select 0 1;
#X obj 342 503 print;
#X obj 303 396 r arm;
#X msg 203 598 1;
#X obj 205 626 s play;
#X obj 177 48 r ttD2;
#X floatatom 344 214 5 0 0 0 - - -, f 5;
#X obj 376 164 - 1;
#X msg 341 127 bang;
#X obj 345 187 % 2;
#X obj 345 162 f 2;
#X msg 396 143 1;
#X obj 186 126 s ttBottomLED;
#N canvas 611 103 450 300 ledpulse 0;
#X obj 83 43 inlet;
#X obj 85 206 outlet;
#X obj 100 71 bng 15 250 50 0 empty empty empty 17 7 0 10 -262144 -1
-1;
#X obj 100 91 t b b;
#X msg 100 135 0;
#X msg 137 137 1;
#X floatatom 103 166 5 0 0 0 - - -, f 5;
#X obj 100 113 delay 100;
#X connect 0 0 2 0;
#X connect 2 0 3 0;
#X connect 3 0 7 0;
#X connect 3 1 5 0;
#X connect 4 0 6 0;
#X connect 4 0 1 0;
#X connect 5 0 6 0;
#X connect 5 0 1 0;
#X connect 7 0 4 0;
#X restore 181 84 pd ledpulse;
#X obj 78 607 s ttSWLED;
#X obj 163 533 t b b b;
#X msg 178 647 0;
#X obj 180 675 s arm;
#X obj 25 660 print;
#X msg 270 455 1 ARMED hit play;
#X msg 246 583 1 --DONE--;
#X msg 341 481 1 --DONE--;
#X msg 25 638 1 --RECORDING--;
#X obj 65 542 metro 500;
#X connect 0 0 37 0;
#X connect 0 0 38 0;
#X connect 1 0 9 0;
#X connect 1 0 33 0;
#X connect 2 0 8 0;
#X connect 3 0 12 0;
#X connect 3 0 45 0;
#X connect 5 0 7 0;
#X connect 6 0 10 0;
#X connect 7 0 0 0;
#X connect 7 0 44 0;
#X connect 7 0 45 0;
#X connect 8 0 5 0;
#X connect 9 0 2 0;
#X connect 9 0 17 0;
#X connect 10 0 2 0;
#X connect 10 0 16 0;
#X connect 10 1 2 1;
#X connect 10 1 11 0;
#X connect 11 0 16 0;
#X connect 12 0 13 0;
#X connect 14 0 3 0;
#X connect 14 0 15 0;
#X connect 15 1 0 1;
#X connect 16 0 14 0;
#X connect 17 0 16 1;
#X connect 20 0 36 0;
#X connect 22 1 41 0;
#X connect 24 0 22 0;
#X connect 25 0 26 0;
#X connect 27 0 30 0;
#X connect 27 0 35 0;
#X connect 29 0 32 1;
#X connect 30 0 32 0;
#X connect 31 0 28 0;
#X connect 31 0 10 0;
#X connect 32 0 29 0;
#X connect 32 0 31 0;
#X connect 33 0 32 1;
#X connect 35 0 34 0;
#X connect 37 0 25 0;
#X connect 37 1 18 0;
#X connect 37 2 42 0;
#X connect 38 0 39 0;
#X connect 41 0 21 0;
#X connect 42 0 19 0;
#X connect 43 0 23 0;
#X connect 44 0 40 0;
#X connect 45 0 4 0;
#X connect 45 0 20 0;
#X restore 103 528 pd recording;
#N canvas 124 68 566 675 initialize 1;
#X obj 50 21 loadbang;
#X msg 99 87 \; pd dsp 1 \;;
#X msg 249 256 list.txt;
#X obj 249 284 s textlist;
#X msg 234 364 rec.wav;
#X obj 260 397 s recording;
#X obj 32 35 bng 15 250 50 0 empty empty empty 17 7 0 10 -262144 -1
-1;
#X obj 127 306 s initvals;
#X obj 156 255 s loadfirst;
#X obj 142 279 s barsupdate;
#X obj 86 350 s euclidupdate;
#X obj 56 179 t b b b b b b b b;
#X obj 22 474 s arm;
#X msg 21 451 1;
#X msg 97 451 1;
#X msg 52 450 0;
#X msg 146 451 0;
#X obj 99 479 s play;
#X obj 62 378 s loadrec;
#X obj 56 56 t b b b;
#X obj 212 95 s checkOS;
#X obj 43 124 delay 200;
#X obj 24 225 delay 100;
#X obj 205 474 s initvals;
#X obj 7 311 t b b b b b b b;
#X obj 154 619 print;
#X obj 205 552 t b b;
#X msg 316 584 1 Euclidean Beat Slicer;
#X obj 327 252 s path;
#X msg 327 220 loops/;
#X text 324 193 loop path relative to tt-EBS.pd;
#X connect 0 0 19 0;
#X connect 2 0 3 0;
#X connect 4 0 5 0;
#X connect 6 0 19 0;
#X connect 11 0 22 0;
#X connect 11 1 9 0;
#X connect 11 2 7 0;
#X connect 11 3 8 0;
#X connect 11 4 4 0;
#X connect 11 5 29 0;
#X connect 11 6 2 0;
#X connect 11 7 29 0;
#X connect 13 0 12 0;
#X connect 14 0 17 0;
#X connect 15 0 12 0;
#X connect 16 0 17 0;
#X connect 19 0 21 0;
#X connect 19 1 1 0;
#X connect 19 2 20 0;
#X connect 21 0 11 0;
#X connect 22 0 24 0;
#X connect 24 0 15 0;
#X connect 24 0 23 0;
#X connect 24 1 16 0;
#X connect 24 2 15 0;
#X connect 24 3 16 0;
#X connect 24 4 18 0;
#X connect 24 5 10 0;
#X connect 24 6 26 0;
#X connect 26 0 27 0;
#X connect 27 0 25 0;
#X connect 29 0 28 0;
#X restore 103 441 pd initialize;
#N canvas 580 50 1067 988 playback 0;
#X obj 332 907 dac~;
#X obj 456 272 f;
#X obj 246 526 vline~;
#X obj 246 248 t b b b;
#X obj 396 429 +;
#X obj 411 402 *;
#X obj 411 379 f;
#X obj 411 349 bng 15 250 50 0 empty empty empty 17 7 0 10 -262144
-1 -1;
#X obj 243 369 f;
#X floatatom 444 379 5 0 0 0 - - -, f 5;
#X obj 411 321 t b f;
#X msg 245 495 \$1 \, \$2 \$3;
#X obj 441 595 line~;
#X obj 247 660 *~;
#X msg 441 572 1 \$1;
#X msg 500 573 0 \$1;
#X obj 616 587 f 5;
#X obj 539 540 f 2;
#X obj 616 558 del;
#X obj 631 533 - 5;
#X obj 539 489 bng 15 250 50 0 empty empty empty 17 7 0 10 -262144
-1 -1;
#X floatatom 646 512 5 0 0 0 - - -, f 5;
#X floatatom 554 518 5 0 0 0 - - -, f 5;
#X obj 19 528 line;
#X obj 19 553 s vispos;
#X obj 347 298 r slen;
#X obj 323 318 f;
#X obj 478 206 r sdur;
#N canvas 966 235 473 394 beatmetro 0;
#X obj 226 215 f;
#X floatatom 237 245 5 0 0 0 - - -, f 5;
#X obj 263 269 >=;
#X floatatom 307 122 5 0 0 0 - - -, f 5;
#X obj 259 216 + 1;
#X obj 192 299 spigot;
#X obj 325 70 r bpbar;
#X obj 112 134 metro 250;
#X obj 307 97 f;
#X msg 245 182 1;
#X obj 171 64 r sdur;
#X obj 112 311 outlet;
#X obj 274 342 outlet;
#X obj 42 17 inlet;
#X obj 172 15 inlet;
#X obj 171 98 f;
#X text 224 17 toggle;
#X text 17 42 incr step;
#X text 267 362 step;
#X obj 270 305 - 1;
#X obj 314 15 inlet;
#X text 372 17 reset;
#X msg 251 125 1;
#X connect 0 0 4 0;
#X connect 0 0 1 0;
#X connect 1 0 2 0;
#X connect 1 0 19 0;
#X connect 2 0 5 1;
#X connect 2 0 5 0;
#X connect 3 0 2 1;
#X connect 4 0 0 1;
#X connect 5 0 9 0;
#X connect 6 0 8 0;
#X connect 7 0 0 0;
#X connect 7 0 11 0;
#X connect 8 0 3 0;
#X connect 9 0 0 1;
#X connect 10 0 15 0;
#X connect 13 0 0 0;
#X connect 13 0 11 0;
#X connect 14 0 7 0;
#X connect 15 0 7 1;
#X connect 19 0 12 0;
#X connect 20 0 22 0;
#X connect 22 0 0 0;
#X restore 317 139 pd beatmetro;
#X floatatom 340 162 5 0 0 0 - - -, f 5;
#X obj 315 116 bng 15 250 50 0 empty empty empty 17 7 0 10 -262144
-1 -1;
#X floatatom 409 294 5 0 0 0 - - -, f 5;
#X obj 364 186 array get beats;
#N canvas 829 62 450 300 reverse 0;
#X obj 57 32 inlet;
#X obj 138 32 inlet;
#X obj 223 32 inlet;
#X obj 306 32 inlet;
#X obj 115 194 pack f f f;
#X obj 115 231 outlet;
#X obj 100 123 swap;
#X obj 280 59 == 0;
#X obj 353 68 == 1;
#X obj 55 81 spigot;
#X obj 148 89 spigot;
#X obj 76 150 spigot;
#X obj 132 149 spigot;
#X connect 0 0 9 0;
#X connect 0 0 6 0;
#X connect 1 0 10 0;
#X connect 1 0 6 1;
#X connect 2 0 4 2;
#X connect 3 0 7 0;
#X connect 3 0 8 0;
#X connect 4 0 5 0;
#X connect 6 0 11 0;
#X connect 6 1 12 0;
#X connect 7 0 9 1;
#X connect 7 0 10 1;
#X connect 8 0 12 1;
#X connect 8 0 11 1;
#X connect 9 0 4 0;
#X connect 10 0 4 1;
#X connect 11 0 4 0;
#X connect 12 0 4 1;
#X restore 282 471 pd reverse;
#X obj 271 171 r fx;
#X floatatom 507 232 5 0 0 0 - - -, f 5;
#X obj 478 250 / 1;
#X obj 648 483 r fout;
#X obj 586 488 r fin;
#X obj 271 193 i;
#X obj 159 311 s ttSWLED;
#X obj 365 96 &&;
#X obj 363 68 t b f;
#X obj 382 15 r play;
#X obj 314 13 r arm;
#X obj 268 51 == 0;
#X obj 315 64 f;
#X floatatom 314 35 5 0 0 0 - - -, f 5;
#X floatatom 393 39 5 0 0 0 - - -, f 5;
#X obj 412 113 r startover;
#N canvas 628 105 1072 837 fxrouter 0;
#X obj 144 70 inlet;
#X obj 457 24 inlet;
#X obj 67 708 outlet;
#X text 96 41 euclid_step in;
#X obj 259 418 outlet;
#X text 252 445 reverse input;
#X obj 512 692 outlet;
#X obj 486 547 select 0 1;
#X obj 528 23 hsl 128 15 0 15.99 0 0 empty empty empty -2 -8 0 10 -262144
-1 -1 794 1;
#X obj 93 575 bng 15 250 50 0 empty empty empty 17 7 0 10 -262144 -1
-1;
#X floatatom 511 651 5 0 0 0 - - -, f 5;
#X floatatom 256 392 5 0 0 0 - - -, f 5;
#X text 469 730 beat speed divider;
#N canvas 621 100 545 423 stutter 0;
#X obj 224 25 inlet;
#X obj 129 258 outlet;
#X obj 265 336 outlet;
#X text 328 338 done;
#X text 13 156 bang n times;
#X obj 158 219 bng 15 250 50 0 empty empty empty 17 7 0 10 -262144
-1 -1;
#X obj 231 80 abs;
#X obj 166 140 f;
#X obj 197 142 + 1;
#X obj 241 142 sel 0;
#X obj 197 163 mod 10;
#X floatatom 154 167 5 0 0 0 - - -, f 5;
#X obj 189 52 bng 15 250 50 0 empty empty empty 17 7 0 10 -262144 -1
-1;
#X obj 297 127 - 1;
#X obj 297 149 abs;
#X obj 245 216 == 2;
#X floatatom 297 171 5 0 0 0 - - -, f 5;
#X obj 244 262 spigot 1;
#X msg 262 295 bang;
#X obj 305 15 inlet;
#X obj 284 75 /;
#X msg 357 241 stop;
#X obj 166 112 metro 500;
#X floatatom 314 107 55 0 0 0 - - -, f 55;
#X obj 357 219 == 1;
#X obj 355 29 r sdur;
#X connect 0 0 12 0;
#X connect 5 0 1 0;
#X connect 6 0 10 1;
#X connect 6 0 13 0;
#X connect 7 0 8 0;
#X connect 7 0 11 0;
#X connect 7 0 15 0;
#X connect 8 0 10 0;
#X connect 9 0 24 0;
#X connect 10 0 7 1;
#X connect 10 0 9 0;
#X connect 11 0 5 0;
#X connect 12 0 22 0;
#X connect 12 0 20 0;
#X connect 13 0 14 0;
#X connect 14 0 16 0;
#X connect 15 0 17 1;
#X connect 15 0 17 0;
#X connect 16 0 15 1;
#X connect 17 0 18 0;
#X connect 18 0 2 0;
#X connect 19 0 20 1;
#X connect 19 0 6 0;
#X connect 20 0 22 1;
#X connect 20 0 23 0;
#X connect 21 0 22 0;
#X connect 22 0 7 0;
#X connect 24 0 21 0;
#X connect 25 0 20 0;
#X restore 77 637 pd stutter;
#X msg 159 600 1;
#X obj 256 340 spigot 1;
#X obj 119 351 == 0;
#X floatatom 49 283 5 0 0 0 - - -, f 5;
#X floatatom 225 280 5 0 0 0 - - -, f 5;
#X floatatom 465 275 5 0 0 0 - - -, f 5;
#X floatatom 367 339 5 0 0 0 - - -, f 5;
#X obj 307 505 sel 0 1;
#X msg 484 575 1;
#X msg 531 575 0.5;
#X floatatom 765 177 5 0 0 0 - - -, f 5;
#X floatatom 769 81 5 0 0 0 - - -, f 5;
#X obj 706 78 div 4;
#X obj 702 127 div 2;
#X obj 693 101 expr $f1- 4*$f2;
#X floatatom 766 130 5 0 0 0 - - -, f 5;
#X obj 707 175 div 1;
#X obj 693 149 expr $f1- 2*$f2;
#X floatatom 771 33 5 0 0 0 - - -, f 5;
#X obj 695 54 expr $f1- 8*$f2;
#X obj 628 88 % 16;
#X text 472 76 binary fx selector;
#X floatatom 628 110 5 0 0 0 - - -, f 5;
#X obj 695 30 div 8;
#X obj 830 53 s fx4;
#X obj 837 178 s fx1;
#X obj 831 125 s fx2;
#X obj 830 82 s fx3;
#X obj 288 301 r fx2;
#X obj 585 551 r fx3;
#X obj 528 609 spigot;
#X obj 257 594 spigot;
#X obj 358 566 r fx1;
#X obj 177 111 t b i i i i;
#X obj 287 533 bng 15 250 50 0 empty empty empty 17 7 0 10 -262144
-1 -1;
#X obj 179 315 r fx4;
#X obj 170 352 != 1;
#X obj 134 397 ||;
#X obj 319 539 t b b;
#X obj 76 670 spigot;
#X obj 358 588 == 1;
#X obj 927 21 loadbang;
#X msg 935 53 0;
#X obj 201 612 r stut;
#X obj 183 642 i 4;
#X text 883 179 stutter;
#X text 874 41 rest;
#X text 878 80 reverse;
#X text 887 130 half-pitch;
#X obj 51 258 array get euclid_rest;
#X obj 225 258 array get euclid_reverse;
#X obj 465 253 array get euclid_pitch;
#X obj 367 317 array get euclid_stutter;
#X connect 0 0 47 0;
#X connect 1 0 8 0;
#X connect 7 0 22 0;
#X connect 7 1 23 0;
#X connect 8 0 34 0;
#X connect 9 0 13 0;
#X connect 10 0 6 0;
#X connect 11 0 4 0;
#X connect 13 0 53 0;
#X connect 14 0 13 1;
#X connect 15 0 11 0;
#X connect 16 0 51 0;
#X connect 20 0 21 0;
#X connect 21 0 48 0;
#X connect 21 1 52 0;
#X connect 22 0 10 0;
#X connect 23 0 44 0;
#X connect 24 0 39 0;
#X connect 25 0 28 1;
#X connect 25 0 41 0;
#X connect 26 0 25 0;
#X connect 27 0 29 0;
#X connect 28 0 27 0;
#X connect 28 0 31 0;
#X connect 29 0 31 1;
#X connect 29 0 40 0;
#X connect 30 0 24 0;
#X connect 31 0 30 0;
#X connect 32 0 33 1;
#X connect 32 0 38 0;
#X connect 33 0 26 0;
#X connect 33 0 28 0;
#X connect 34 0 33 0;
#X connect 34 0 36 0;
#X connect 34 0 37 0;
#X connect 37 0 32 0;
#X connect 42 0 15 1;
#X connect 43 0 44 1;
#X connect 44 0 10 0;
#X connect 45 0 58 0;
#X connect 46 0 54 0;
#X connect 47 0 9 0;
#X connect 47 1 63 0;
#X connect 47 2 64 0;
#X connect 47 3 66 0;
#X connect 47 4 65 0;
#X connect 48 0 14 0;
#X connect 49 0 50 0;
#X connect 50 0 51 1;
#X connect 51 0 53 1;
#X connect 52 0 13 0;
#X connect 52 1 45 0;
#X connect 53 0 2 0;
#X connect 54 0 45 1;
#X connect 55 0 56 0;
#X connect 56 0 38 0;
#X connect 56 0 41 0;
#X connect 56 0 40 0;
#X connect 56 0 39 0;
#X connect 57 0 58 1;
#X connect 58 0 13 1;
#X connect 63 0 16 0;
#X connect 63 0 17 0;
#X connect 64 0 15 0;
#X connect 64 0 18 0;
#X connect 65 0 7 0;
#X connect 65 0 19 0;
#X connect 66 0 20 0;
#X restore 213 218 pd fxrouter;
#X obj 220 102 s ttTopLED;
#N canvas 611 103 450 300 ledpulse 0;
#X obj 83 43 inlet;
#X obj 85 206 outlet;
#X obj 100 71 bng 15 250 50 0 empty empty empty 17 7 0 10 -262144 -1
-1;
#X obj 100 91 t b b;
#X msg 100 135 0;
#X msg 137 137 1;
#X floatatom 103 166 5 0 0 0 - - -, f 5;
#X obj 100 113 delay 100;
#X connect 0 0 2 0;
#X connect 2 0 3 0;
#X connect 3 0 7 0;
#X connect 3 1 5 0;
#X connect 4 0 6 0;
#X connect 4 0 1 0;
#X connect 5 0 6 0;
#X connect 5 0 1 0;
#X connect 7 0 4 0;
#X restore 163 282 pd ledpulse;
#X obj 301 89 r ttD1;
#X text 531 447 originally from www.timvets.net;
#X obj 576 735 inlet;
#X obj 247 554 tabread~ loopl;
#X obj 244 701 tabwrite~ visuall;
#X obj 75 717 tabwrite~ visualr;
#X msg 480 318 \; visuall resize \$1 \; visualr resize \$1;
#X obj 122 540 vline~;
#X obj 123 674 *~;
#X obj 123 568 tabread~ loopr;
#N canvas 256 71 575 300 insertR 0;
#X obj 139 41 inlet~;
#X obj 153 255 outlet~;
#X obj 253 11 inlet;
#X obj 147 166 *~ 1;
#X msg 193 131 0;
#X obj 255 121 adc~;
#X obj 209 164 *~ 0;
#X msg 282 85 0;
#X obj 244 52 select 0 1;
#X text 304 2 armed (1) lets adc thru and blocks playback;
#X msg 188 85 1;
#X msg 317 128 1;
#X connect 0 0 3 0;
#X connect 2 0 8 0;
#X connect 3 0 1 0;
#X connect 4 0 6 1;
#X connect 5 1 6 0;
#X connect 6 0 1 0;
#X connect 7 0 11 0;
#X connect 7 0 3 1;
#X connect 8 0 10 0;
#X connect 8 1 7 0;
#X connect 10 0 3 1;
#X connect 10 0 4 0;
#X connect 11 0 6 1;
#X restore 118 789 pd insertR;
#N canvas 256 71 575 300 insertL 0;
#X obj 139 41 inlet~;
#X obj 153 255 outlet~;
#X obj 253 11 inlet;
#X obj 147 166 *~ 1;
#X msg 193 131 0;
#X obj 255 121 adc~;
#X obj 209 164 *~ 0;
#X msg 282 85 0;
#X obj 244 52 select 0 1;
#X text 304 2 armed (1) lets adc thru and blocks playback;
#X msg 188 85 1;
#X msg 319 130 1;
#X connect 0 0 3 0;
#X connect 2 0 8 0;
#X connect 3 0 1 0;
#X connect 4 0 6 1;
#X connect 5 0 6 0;
#X connect 6 0 1 0;
#X connect 7 0 11 0;
#X connect 7 0 3 1;
#X connect 8 0 10 0;
#X connect 8 1 7 0;
#X connect 10 0 3 1;
#X connect 10 0 4 0;
#X connect 11 0 6 1;
#X restore 474 785 pd insertL;
#X obj 630 85 bng 15 250 50 0 empty empty empty 17 7 0 10 -262144 -1
-1;
#X msg 634 161 128;
#X obj 634 183 until;
#X obj 634 205 f;
#X obj 634 227 t f f;
#X obj 634 249 * 4;
#X obj 634 271 tabread4 visuall;
#X msg 693 157 127;
#X obj 685 205 - 1;
#X obj 752 64 r slen;
#X obj 753 86 / 128;
#X floatatom 752 108 5 0 0 0 - - -, f 5;
#X floatatom 800 85 25 0 0 0 - - -, f 25;
#X obj 680 352 tabwrite oled;
#X obj 787 278 array get oled;
#X obj 629 106 t b b b;
#X obj 634 293 * 16;
#X obj 634 315 + 16;
#X obj 634 337 i;
#N canvas 611 103 450 300 ledpulse 0;
#X obj 83 43 inlet;
#X obj 85 206 outlet;
#X obj 100 71 bng 15 250 50 0 empty empty empty 17 7 0 10 -262144 -1
-1;
#X obj 100 91 t b b;
#X msg 100 135 0;
#X msg 137 137 1;
#X floatatom 103 166 5 0 0 0 - - -, f 5;
#X obj 100 113 delay 100;
#X connect 0 0 2 0;
#X connect 2 0 3 0;
#X connect 3 0 7 0;
#X connect 3 1 5 0;
#X connect 4 0 6 0;
#X connect 4 0 1 0;
#X connect 5 0 6 0;
#X connect 5 0 1 0;
#X connect 7 0 4 0;
#X restore 865 531 pd ledpulse;
#X obj 861 495 r ttD1;
#X obj 870 573 s ttTopLED;
#X obj 811 333 print print: Z;
#X connect 1 0 19 0;
#X connect 1 0 33 2;
#X connect 2 0 56 0;
#X connect 3 0 8 0;
#X connect 3 1 20 0;
#X connect 3 1 26 0;
#X connect 3 2 36 0;
#X connect 3 2 1 0;
#X connect 4 0 33 1;
#X connect 5 0 4 1;
#X connect 5 0 8 1;
#X connect 6 0 5 0;
#X connect 7 0 6 0;
#X connect 8 0 33 0;
#X connect 9 0 5 1;
#X connect 10 0 7 0;
#X connect 10 1 9 0;
#X connect 11 0 2 0;
#X connect 11 0 23 0;
#X connect 11 0 60 0;
#X connect 12 0 13 1;
#X connect 12 0 61 1;
#X connect 13 0 64 0;
#X connect 13 0 57 0;
#X connect 14 0 12 0;
#X connect 15 0 12 0;
#X connect 16 0 15 0;
#X connect 17 0 14 0;
#X connect 18 0 16 0;
#X connect 19 0 18 1;
#X connect 20 0 17 0;
#X connect 20 0 18 0;
#X connect 21 0 19 1;
#X connect 22 0 17 1;
#X connect 23 0 24 0;
#X connect 25 0 26 1;
#X connect 26 0 59 0;
#X connect 26 0 4 0;
#X connect 26 0 6 1;
#X connect 27 0 36 0;
#X connect 28 0 57 0;
#X connect 28 0 58 0;
#X connect 28 0 65 0;
#X connect 28 1 29 0;
#X connect 29 0 32 0;
#X connect 29 0 50 0;
#X connect 30 0 28 0;
#X connect 31 0 10 0;
#X connect 32 0 31 0;
#X connect 33 0 11 0;
#X connect 34 0 39 0;
#X connect 35 0 36 1;
#X connect 36 0 1 1;
#X connect 37 0 21 0;
#X connect 38 0 22 0;
#X connect 39 0 50 1;
#X connect 41 0 28 1;
#X connect 42 0 41 0;
#X connect 42 1 41 1;
#X connect 43 0 42 0;
#X connect 43 0 48 0;
#X connect 44 0 45 0;
#X connect 44 0 47 0;
#X connect 44 0 51 0;
#X connect 45 0 46 0;
#X connect 46 0 41 0;
#X connect 49 0 28 2;
#X connect 50 0 3 0;
#X connect 50 0 52 0;
#X connect 50 1 33 3;
#X connect 50 2 35 0;
#X connect 52 0 40 0;
#X connect 53 0 30 0;
#X connect 55 0 64 1;
#X connect 55 0 63 1;
#X connect 56 0 13 0;
#X connect 60 0 62 0;
#X connect 61 0 58 0;
#X connect 61 0 63 0;
#X connect 62 0 61 0;
#X connect 63 0 0 0;
#X connect 64 0 0 1;
#X connect 65 0 80 0;
#X connect 66 0 67 0;
#X connect 67 0 68 0;
#X connect 68 0 69 0;
#X connect 68 0 73 0;
#X connect 69 0 70 0;
#X connect 69 1 78 1;
#X connect 70 0 71 0;
#X connect 71 0 81 0;
#X connect 72 0 68 1;
#X connect 73 0 68 1;
#X connect 74 0 75 0;
#X connect 74 0 77 0;
#X connect 75 0 70 1;
#X connect 75 0 76 0;
#X connect 79 0 87 0;
#X connect 80 0 79 0;
#X connect 80 1 66 0;
#X connect 80 2 72 0;
#X connect 81 0 82 0;
#X connect 82 0 83 0;
#X connect 83 0 78 0;
#X connect 84 0 86 0;
#X connect 85 0 84 0;
#X restore 622 559 pd playback;
#X obj 532 463 s play;
#X msg 535 438 0;
#X msg 580 437 1;
#X msg 541 495 0;
#X msg 586 494 1;
#X obj 538 520 s arm;
#X obj 673 404 r arm;
#X obj 732 405 r play;
#X obj 675 511 ||;
#X obj 732 508 &&;
#X obj 794 476 == 0;
#X obj 732 464 == 0;
#X msg 857 162 0.1;
#X floatatom 732 486 5 0 0 0 - - -, f 5;
#X floatatom 794 497 5 0 0 0 - - -, f 5;
#X floatatom 675 533 5 0 0 0 - - -, f 5;
#X floatatom 779 537 5 0 0 0 - - -, f 5;
#X obj 673 457 f;
#X obj 732 431 f;
#X obj 652 429 bng 15 250 50 0 empty empty empty 17 7 0 10 -262144
-1 -1;
#X obj 791 431 bng 15 250 50 0 empty empty empty 17 7 0 10 -262144
-1 -1;
#X text 620 593 inlet = 1 passes audio;
#N canvas 0 50 450 300 (subpatch) 0;
#X array loopr 503936 float 2;
#X coords 0 1 503936 -1 200 70 1 0 0;
#X restore 66 103 graph;
#N canvas 0 50 450 300 (subpatch) 0;
#X array visualr 1 float 5;
#A 0 0;
#X coords 0 1 1 -1 200 70 1 0 0;
#X restore 65 280 graph;
#N canvas 0 50 450 250 (subpatch) 0;
#X array oled 128 float 5;
#A 0 16 16 16 16 16 16 16 16 16 16 16 16 16 16 16 16 16 16 16 16 16
16 16 16 16 16 16 16 16 16 16 16 16 16 16 16 16 16 16 16 16 16 16 16
16 16 16 16 16 16 16 16 16 16 16 16 16 16 16 16 16 16 16 16 16 16 16
16 16 16 16 16 16 16 16 16 16 16 16 16 16 16 16 16 16 16 16 16 16 16
16 16 16 16 16 16 16 16 16 16 16 16 16 16 16 16 16 16 16 16 16 16 16
16 16 16 16 16 16 16 16 16 16 16 16 16 16 16;
#X coords 0 0 127 32 200 140 1 0 0;
#X restore 63 574 graph;
#X obj 885 462 change;
#X obj 885 484 == 0;
#X obj 869 535 symbol;
#X obj 866 586 print;
#X msg 868 560 1 \$1;
#X obj 947 480 r filename;
#X obj 885 506 t b;
#X obj 947 502 symbol;
#X connect 2 0 14 0;
#X connect 4 0 15 0;
#X connect 9 0 7 0;
#X connect 11 0 10 0;
#X connect 13 0 12 0;
#X connect 16 0 18 0;
#X connect 18 0 19 0;
#X connect 22 0 24 0;
#X connect 23 0 17 0;
#X connect 24 0 11 0;
#X connect 24 1 59 0;
#X connect 24 2 9 0;
#X connect 24 3 29 0;
#X connect 24 4 13 0;
#X connect 24 5 40 0;
#X connect 29 0 6 0;
#X connect 30 0 17 0;
#X connect 31 0 17 1;
#X connect 32 0 12 0;
#X connect 33 0 6 0;
#X connect 34 0 7 0;
#X connect 35 0 20 0;
#X connect 36 0 10 0;
#X connect 37 0 17 2;
#X connect 38 0 17 2;
#X connect 40 0 39 0;
#X connect 41 0 39 0;
#X connect 48 0 47 0;
#X connect 49 0 47 0;
#X connect 50 0 52 0;
#X connect 51 0 52 0;
#X connect 53 0 57 0;
#X connect 53 0 64 0;
#X connect 53 0 66 0;
#X connect 54 0 65 0;
#X connect 54 0 67 0;
#X connect 55 0 46 0;
#X connect 55 0 62 0;
#X connect 56 0 63 0;
#X connect 56 0 55 1;
#X connect 57 0 56 1;
#X connect 57 0 61 0;
#X connect 58 0 56 0;
#X connect 58 0 60 0;
#X connect 59 0 20 0;
#X connect 64 0 55 0;
#X connect 65 0 58 0;
#X connect 65 0 72 0;
#X connect 66 0 65 0;
#X connect 67 0 64 0;
#X connect 72 0 73 0;
#X connect 73 0 78 0;
#X connect 74 0 76 0;
#X connect 76 0 75 0;
#X connect 77 0 79 0;
#X connect 78 0 74 0;
#X connect 79 0 74 1;
#X coords 0 0 1 1 85 60 0;
